# xmcd CD database file
#
# Track frame offsets:
#	150
#	14572
#	24577
#	45925
#	56747
#	67880
#	88920
#	103742
#	118320
#	142877
#	157065
#	165560
#	176007
#	188522
#	204330
#	212345
#	231255
#	242985
#
# Disc length: 3599 seconds
#
# Revision: 0
# Processed by: cddbd v1.5.1PL2 Copyright (c) Steve Scherf et al.
# Submitted via: CDex 1.50
#
DISCID=f60e0d12
DTITLE=Zool Fleischer - Zoolitude
DYEAR=1999
DGENRE=Jazz
TTITLE0=Mon Lion
TTITLE1=Strange Foot
TTITLE2=Le Derviche Fraiseur
TTITLE3=Passage Au Chinois
TTITLE4=La Valse En Carton
TTITLE5=Low And Green
TTITLE6=Retour De Manivelle
TTITLE7=Un Dimanche A Lausanne
TTITLE8=Pimpinella
TTITLE9=Solitude
TTITLE10=Valse Cambree
TTITLE11=Pauvre Batracien
TTITLE12=Les Oignons
TTITLE13=L'autre
TTITLE14=Notturno
TTITLE15=La Nuit Du Chat Sourd
TTITLE16=Un Chanson D'ours
TTITLE17=Fantomes
EXTD=YEAR: 1999
EXTT0=
EXTT1=
EXTT2=
EXTT3=
EXTT4=
EXTT5=
EXTT6=
EXTT7=
EXTT8=
EXTT9=
EXTT10=
EXTT11=
EXTT12=
EXTT13=
EXTT14=
EXTT15=
EXTT16=
EXTT17=
PLAYORDER=
